<svg width="81" height="83" viewBox="0 0 81 83" fill="none" xmlns="http://www.w3.org/2000/svg">
<path d="M33.8849 7.07314L33.9555 7.06095L34.0246 7.04209C35.0163 6.77134 35.8842 6.16983 36.6024 5.57642C37.1672 5.10979 37.738 4.56146 38.2611 4.05892C38.4042 3.92145 38.5437 3.78741 38.6785 3.65941C39.345 3.02684 39.9291 2.50915 40.4858 2.15432C41.0386 1.80199 41.431 1.69764 41.7271 1.7123C42.0307 1.72733 42.4293 1.87561 42.9758 2.28807C43.5233 2.7012 44.0839 3.27353 44.7234 3.95784C44.8104 4.05089 44.8991 4.14641 44.9895 4.24365C45.5284 4.82354 46.1241 5.4646 46.7317 6.00637C47.4375 6.63566 48.3068 7.27058 49.3351 7.54376C50.3985 7.8263 51.4827 7.72146 52.434 7.5248C53.2768 7.35056 54.1441 7.07368 54.9164 6.82715C55.0134 6.79617 55.1089 6.76568 55.2027 6.73592C56.0905 6.4543 56.8399 6.23299 57.5029 6.1433C58.1593 6.05451 58.5645 6.12039 58.8341 6.25733C59.0993 6.39196 59.3892 6.67848 59.7001 7.26217C60.0136 7.8507 60.2704 8.58878 60.5539 9.47005C60.5903 9.58342 60.6273 9.69959 60.665 9.81789C60.9042 10.5684 61.1708 11.4051 61.4962 12.1594C61.8726 13.0316 62.3988 13.973 63.2303 14.6599C64.058 15.3436 65.0816 15.689 66.009 15.9029C66.799 16.0852 67.6591 16.2 68.4332 16.3033C68.5697 16.3215 68.7035 16.3394 68.8337 16.3572C69.7543 16.483 70.5262 16.609 71.1555 16.8161C71.7804 17.0218 72.0974 17.2554 72.2616 17.4817C72.4341 17.7196 72.5636 18.1089 72.5797 18.7772C72.5958 19.4487 72.4964 20.2277 72.3592 21.1441C72.343 21.2527 72.3261 21.3635 72.309 21.4763C72.1894 22.2632 72.0561 23.1411 72.0148 23.9702C71.9677 24.9157 72.025 25.9906 72.4718 26.9694C72.915 27.9406 73.6852 28.6978 74.4233 29.2957C75.0468 29.8006 75.7628 30.2796 76.41 30.7125C76.5316 30.7939 76.6508 30.8736 76.7665 30.9516C77.5407 31.4734 78.1839 31.9324 78.6625 32.4012C79.1386 32.8676 79.3256 33.2238 79.3752 33.5055C79.4294 33.8129 79.374 34.2375 79.1038 34.8577C78.8325 35.4801 78.4129 36.1508 77.9028 36.9249C77.8322 37.0319 77.7597 37.1413 77.6858 37.2528C77.2531 37.9051 76.7746 38.6266 76.3904 39.3398C75.9415 40.1733 75.5282 41.157 75.4778 42.2132C75.4262 43.2935 75.7742 44.3114 76.1707 45.1694C76.507 45.897 76.9423 46.6377 77.3334 47.3034C77.4029 47.4216 77.4709 47.5374 77.5368 47.6504C78.0001 48.4449 78.3744 49.1284 78.5993 49.76C78.8207 50.3818 78.846 50.8164 78.7576 51.1491C78.6874 51.4133 78.4744 51.7517 77.9602 52.1874C77.4459 52.623 76.7728 53.0395 75.9682 53.5144C75.8743 53.5698 75.7784 53.6261 75.6809 53.6834C74.9873 54.0909 74.2145 54.5449 73.537 55.0391C72.7793 55.5918 71.9884 56.2994 71.4983 57.2339C70.9508 58.1735 70.793 59.2389 70.7588 60.188C70.7271 61.0654 70.7997 61.9991 70.8642 62.8283C70.8706 62.911 70.877 62.9927 70.8831 63.0733C70.9549 64.011 71.0027 64.8048 70.9417 65.4852C70.884 66.1288 70.7404 66.5073 70.5646 66.7378C70.3189 66.9812 69.926 67.1923 69.2951 67.3534C68.6295 67.5234 67.8422 67.6039 66.9239 67.6759C66.7975 67.6858 66.668 67.6956 66.5362 67.7055C65.7602 67.7641 64.9022 67.8289 64.1094 67.9641C63.1822 68.1223 62.1587 68.4029 61.2995 69.0205C60.4259 69.6485 59.8426 70.5532 59.4142 71.3974C59.0386 72.1376 58.7186 72.966 58.4318 73.7085C58.3908 73.8149 58.3504 73.9195 58.3106 74.0218C57.9748 74.8855 57.6745 75.611 57.3272 76.186C56.9815 76.7582 56.6759 77.0319 56.4081 77.1528C56.1374 77.2749 55.7291 77.3234 55.0752 77.2057C54.4178 77.0873 53.6763 76.8332 52.8098 76.5108C52.6803 76.4626 52.5473 76.4126 52.4116 76.3616C51.6891 76.09 50.8903 75.7897 50.1208 75.5762C49.2081 75.3229 48.1566 75.136 47.1151 75.3159L47.0445 75.3281L46.9754 75.347C45.9836 75.6177 45.1158 76.2192 44.3976 76.8126C43.8328 77.2793 43.262 77.8276 42.7389 78.3302C42.5958 78.4676 42.4563 78.6017 42.3214 78.7297C41.655 79.3622 41.0708 79.8799 40.5142 80.2348C39.9614 80.5871 39.5689 80.6914 39.2729 80.6768C38.9693 80.6617 38.5707 80.5135 38.0241 80.101C37.4767 79.6879 36.9161 79.1155 36.2766 78.4312C36.1896 78.3382 36.1009 78.2427 36.0105 78.1454C35.4716 77.5655 34.8759 76.9245 34.2683 76.3827C33.5625 75.7534 32.6931 75.1185 31.6649 74.8453C30.6015 74.5627 29.5173 74.6676 28.566 74.8642C27.7232 75.0385 26.856 75.3153 26.0838 75.5619C25.9867 75.5929 25.8911 75.6234 25.7973 75.6531C24.9095 75.9348 24.1601 76.1561 23.4971 76.2458C22.8407 76.3346 22.4355 76.2687 22.1658 76.1317C21.9007 75.9971 21.6108 75.7106 21.2999 75.1269C20.9864 74.5384 20.7295 73.8003 20.4461 72.919C20.4097 72.8056 20.3727 72.6895 20.335 72.5712C20.0958 71.8206 19.8292 70.984 19.5037 70.2297C19.1274 69.3575 18.6012 68.4161 17.7697 67.7292C16.942 67.0455 15.9183 66.7001 14.991 66.4862C14.201 66.3039 13.341 66.1891 12.5669 66.0858C12.4304 66.0675 12.2966 66.0497 12.1663 66.0319C11.2457 65.906 10.4738 65.78 9.84447 65.5729C9.21956 65.3672 8.90259 65.1337 8.7384 64.9073C8.56589 64.6695 8.4364 64.2802 8.42033 63.6119C8.40418 62.9403 8.50361 62.1614 8.64074 61.245C8.65699 61.1364 8.67383 61.0255 8.69096 60.9128C8.81053 60.1258 8.94391 59.2479 8.98521 58.4188C9.0323 57.4734 8.97494 56.3985 8.52822 55.4197C8.08493 54.4485 7.31482 53.6913 6.57667 53.0934C5.95317 52.5885 5.23724 52.1095 4.59007 51.6766C4.46843 51.5952 4.34921 51.5154 4.2335 51.4374C3.45932 50.9156 2.81613 50.4567 2.33749 49.9878C1.86136 49.5214 1.67437 49.1652 1.62475 48.8835C1.57059 48.5761 1.62597 48.1516 1.89621 47.5314C2.16743 46.9089 2.58706 46.2382 3.09722 45.4642C3.16774 45.3572 3.2403 45.2478 3.31419 45.1364C3.74686 44.484 4.22539 43.7625 4.60955 43.0492C5.05848 42.2158 5.47178 41.2321 5.5222 40.1759C5.57376 39.0956 5.22574 38.0777 4.82925 37.2197C4.49299 36.4921 4.05773 35.7514 3.66656 35.0857C3.59712 34.9675 3.52906 34.8516 3.46319 34.7387C2.99993 33.9442 2.6256 33.2607 2.40071 32.629C2.17932 32.0073 2.15403 31.5726 2.24241 31.24C2.3308 30.9073 2.56848 30.5425 3.06928 30.1126C3.57801 29.6759 4.24221 29.2683 5.03873 28.8085C5.15197 28.7431 5.26853 28.6764 5.38747 28.6083C6.05747 28.2245 6.80299 27.7974 7.45605 27.3327C8.21407 26.7932 9.00827 26.0958 9.50163 25.1552C10.0492 24.2155 10.207 23.1501 10.2412 22.201C10.2729 21.3236 10.2003 20.3898 10.1358 19.5607C10.1293 19.478 10.123 19.3963 10.1168 19.3158C10.0451 18.3781 9.99729 17.5842 10.0583 16.9039C10.116 16.2602 10.2596 15.8817 10.4354 15.6513C10.6811 15.4079 11.074 15.1968 11.7049 15.0357C12.3705 14.8657 13.1577 14.7852 14.0761 14.7132C14.2025 14.7033 14.332 14.6935 14.4639 14.6835C15.2398 14.625 16.0978 14.5602 16.8906 14.4249C17.8177 14.2667 18.8413 13.9861 19.7004 13.3686C20.574 12.7406 21.1573 11.8359 21.5857 10.9917C21.9614 10.2514 22.2813 9.42311 22.5681 8.68058C22.6092 8.5742 22.6496 8.46958 22.6894 8.36723C23.0252 7.50362 23.3255 6.77805 23.6728 6.20306C24.0185 5.63085 24.3241 5.35716 24.5919 5.2363C24.8625 5.11417 25.2709 5.06563 25.9248 5.18341C26.5822 5.30181 27.3237 5.5559 28.1901 5.87825C28.3197 5.92647 28.4527 5.97646 28.5884 6.02745C29.3109 6.29907 30.1097 6.59937 30.8791 6.81286C31.7919 7.06613 32.8434 7.25308 33.8849 7.07314Z" fill="#FEE440" stroke="#101828" stroke-width="3"/>
<g clip-path="url(#clip0_0_1)">
<rect width="40" height="40" transform="translate(26.2764 16.7217) rotate(14.8787)" fill="#FEE440"/>
<path d="M24 32 L58 32 M27 32 L23 60 M55 32 L59 60 M23 60 L59 60 M33 40 Q41 46 49 40" fill="none" stroke="#101828" stroke-width="3" stroke-linecap="round" stroke-linejoin="round"/>
</g>
<defs>
<clipPath id="clip0_0_1">
<rect width="40" height="40" fill="white" transform="translate(26.2764 16.7217) rotate(14.8787)"/>
</clipPath>
</defs>
</svg>
